<?xml version="1.0" encoding="utf-8" ?><svg xmlns="http://www.w3.org/2000/svg" xmlns:xlink="http://www.w3.org/1999/xlink" width="2281" height="2277" viewBox="0 0 2281 2277"><defs><linearGradient id="gradient_0" gradientUnits="userSpaceOnUse" x1="120.34226" y1="344.79303" x2="372.89792" y2="471.32187"><stop offset="0" stop-color="#A5C637"/><stop offset="1" stop-color="#4FB158"/></linearGradient></defs><path fill="url(#gradient_0)" transform="scale(4.49091 4.49091)" d="M347.888 1.9642L417.151 1.82652C431.554 1.78497 445.958 1.83799 460.361 1.98558L460.353 25.6235C460.354 28.5125 460.532 34.4975 460.316 37.2299C460.533 43.9544 460.385 51.3985 460.385 58.1677L460.397 99.4764L460.594 286.783C460.74 292.978 460.713 299.175 460.513 305.369C461.255 312.335 460.588 320.422 460.759 327.529C461.315 350.639 459.719 373.864 451.457 395.681C450.786 397.452 450.144 399.269 449.472 401.055C434.878 438.749 403.862 469.954 366.944 485.811C366.036 486.2 362.359 487.774 361.55 487.933C357.784 489.607 353.055 491.039 349.133 492.21C331.831 497.381 314.513 498.6 296.554 498.272C290.326 498.158 284.336 498.486 278.004 497.933C270.322 498.912 260.018 498.604 252.063 498.607L212.185 498.48C207.367 497.957 197.47 498.159 192.381 498.145L153.856 498.066C114.692 497.357 77.373 481.292 49.9393 453.332C24.7219 428.044 9.33581 394.601 6.53926 358.998C6.12903 353.912 6.2249 348.935 6.22357 343.837L6.21177 324.426C6.20273 307.088 6.03425 289.588 6.22208 272.273C6.49363 265.883 6.1898 256.38 6.1945 249.685L6.19257 199.803C6.19667 191.795 6.00016 183.056 6.23271 175.113C6.10062 171.513 6.17139 167.561 6.1056 163.898C6.13516 158.335 6.12889 152.772 6.0868 147.209C5.90778 142.952 6.13157 132.364 6.37936 128.029C8.59762 92.666 24.7454 59.6247 51.2836 36.1471C74.4473 15.3773 104.244 3.68439 135.097 2.21624C143.751 1.80444 152.682 1.97225 161.373 1.9722L200.776 1.92683L250.571 1.87795C258.107 1.87691 268.563 1.55276 275.907 1.96162C282.332 1.75889 289.331 1.89776 295.789 1.90609L330.135 1.95943C335.395 1.968 342.72 2.19582 347.888 1.9642Z"/><defs><linearGradient id="gradient_1" gradientUnits="userSpaceOnUse" x1="8.7649355" y1="151.84209" x2="465.69443" y2="261.84689"><stop offset="0" stop-color="#24AD76"/><stop offset="1" stop-color="#77BB63"/></linearGradient></defs><path fill="url(#gradient_1)" transform="scale(4.49091 4.49091)" d="M347.888 1.9642L417.151 1.82652C431.554 1.78497 445.958 1.83799 460.361 1.98558L460.353 25.6235C460.354 28.5125 460.532 34.4975 460.316 37.2299C460.533 43.9544 460.385 51.3985 460.385 58.1677L460.397 99.4764L460.594 286.783C458.49 286.222 457.43 285.625 455.11 285.172C451.663 277.124 449.832 271.002 445.647 262.661C430.114 231.481 405.274 205.9 374.564 189.458C345.798 174.001 313.158 167.241 280.618 170.002C276.525 170.351 265.955 171.5 262.093 172.684C258.011 173.191 251.292 175.013 247.304 176.183C224.971 182.643 204.21 193.64 186.32 208.487C182.294 211.85 178.428 215.4 174.734 219.126C173.592 220.271 169.39 224.769 168.371 225.562C164.409 220.487 161.519 218.766 155.069 217.61C137.75 214.506 132.554 236.274 128.692 248.79C128.018 250.974 127.726 253.573 127.117 255.785C125.877 243.853 124.186 225.854 114.953 217.131C111.863 214.212 105.172 213.832 101.074 214.376C89.788 215.873 85.4694 226.004 83.7026 235.895C69.2019 236.546 58.0658 242.424 59.2305 258.529C60.2938 273.234 85.8672 278.117 97.0636 281.603C86.0566 282.42 67.1106 284.592 59.1705 293.183C56.0212 296.591 55.6801 302.323 56.0424 306.76C56.321 310.171 57.5344 312.849 59.4492 315.706C58.1414 316.937 52.8679 313.868 51.2556 313.122C39.9152 307.85 29.685 300.464 21.1141 291.357C15.8096 285.609 11.671 279.857 7.47435 273.284C7.14858 272.773 6.74028 272.542 6.22208 272.273C6.49363 265.883 6.1898 256.38 6.1945 249.685L6.19257 199.803C6.19667 191.795 6.00016 183.056 6.23271 175.113C6.10062 171.513 6.17139 167.561 6.1056 163.898C6.13516 158.335 6.12889 152.772 6.0868 147.209C5.90778 142.952 6.13157 132.364 6.37936 128.029C8.59762 92.666 24.7454 59.6247 51.2836 36.1471C74.4473 15.3773 104.244 3.68439 135.097 2.21624C143.751 1.80444 152.682 1.97225 161.373 1.9722L200.776 1.92683L250.571 1.87795C258.107 1.87691 268.563 1.55276 275.907 1.96162C282.332 1.75889 289.331 1.89776 295.789 1.90609L330.135 1.95943C335.395 1.968 342.72 2.19582 347.888 1.9642Z"/><path fill="#6BB85A" transform="scale(4.49091 4.49091)" d="M347.888 1.9642L417.151 1.82652C431.554 1.78497 445.958 1.83799 460.361 1.98558L460.353 25.6235C460.354 28.5125 460.532 34.4975 460.316 37.2299C460.155 39.7311 460.18 42.373 460.207 44.8878C460.425 65.9497 459.868 87.1388 460.316 108.183C458.312 108.111 455.362 109.014 453.118 109.369C450.98 110.47 434.77 113.885 431.413 114.569C377.906 125.478 322.208 126.778 268.211 119.324C261.601 118.415 255.007 117.396 248.431 116.267C246.105 115.863 241.476 115.252 239.364 114.515C238.256 113.28 214.242 109.514 213.162 108.055C213.237 107.928 213.496 107.475 213.574 107.411C215.219 106.008 215.026 102.327 216.168 100.546C218.562 96.8081 221.4 93.1956 223.9 89.5094C226.091 86.2784 229.667 83.2228 231.825 79.8574C235.504 74.1206 238.959 68.3164 242.71 62.6268C244.195 60.4265 246.381 58.1061 247.993 55.8072C252.251 49.7341 256.532 43.6993 260.717 37.574C263.082 34.1119 266.978 30.4455 269.437 27.0788C272.295 23.1655 274.934 18.4995 277.153 14.2083C277.669 13.0711 279.651 9.9096 279.645 8.80657C279.622 4.64996 285.289 6.79819 286.007 4.26069C285.532 3.64853 284.574 3.66348 283.61 3.14054C283.852 2.969 284.093 2.79747 284.335 2.62594C288.817 2.36669 294.919 2.64691 299.243 2.40471C295.425 2.37807 278.274 2.76278 275.907 1.96162C282.332 1.75889 289.331 1.89776 295.789 1.90609L330.135 1.95943C335.395 1.968 342.72 2.19582 347.888 1.9642Z"/><path fill="#ADCC3F" transform="scale(4.49091 4.49091)" d="M347.888 1.9642L417.151 1.82652C431.554 1.78497 445.958 1.83799 460.361 1.98558L460.353 25.6235C460.354 28.5125 460.532 34.4975 460.316 37.2299C460.155 39.7311 460.18 42.373 460.207 44.8878C460.425 65.9497 459.868 87.1388 460.316 108.183C458.312 108.111 455.362 109.014 453.118 109.369C451.966 108.058 444.981 102.567 443.236 101.119C437.165 96.0767 431.223 90.8812 425.416 85.5374C404.533 65.8765 384.733 45.0964 366.103 23.2887L353.977 9.22864C352.233 7.18687 349.363 4.03919 347.888 1.9642Z"/><defs><linearGradient id="gradient_2" gradientUnits="userSpaceOnUse" x1="289.74326" y1="96.774261" x2="12.73574" y2="68.181664"><stop offset="0" stop-color="#7EBC60"/><stop offset="1" stop-color="#27AE76"/></linearGradient></defs><path fill="url(#gradient_2)" transform="scale(4.49091 4.49091)" d="M6.0868 147.209C5.90778 142.952 6.13157 132.364 6.37936 128.029C8.59762 92.666 24.7454 59.6247 51.2836 36.1471C74.4473 15.3773 104.244 3.68439 135.097 2.21624C143.751 1.80444 152.682 1.97225 161.373 1.9722L200.776 1.92683L250.571 1.87795C258.107 1.87691 268.563 1.55276 275.907 1.96162C278.274 2.76278 295.425 2.37807 299.243 2.40471C294.919 2.64691 288.817 2.36669 284.335 2.62594C284.093 2.79747 283.852 2.969 283.61 3.14054C284.574 3.66348 285.532 3.64853 286.007 4.26069C285.289 6.79819 279.622 4.64996 279.645 8.80657C279.651 9.9096 277.669 13.0711 277.153 14.2083C274.934 18.4995 272.295 23.1655 269.437 27.0788C266.978 30.4455 263.082 34.1119 260.717 37.574C256.532 43.6993 252.251 49.7341 247.993 55.8072C246.381 58.1061 244.195 60.4265 242.71 62.6268C238.959 68.3164 235.504 74.1206 231.825 79.8574C229.667 83.2228 226.091 86.2784 223.9 89.5094C221.4 93.1956 218.562 96.8081 216.168 100.546C215.026 102.327 215.219 106.008 213.574 107.411C213.496 107.475 213.237 107.928 213.162 108.055C214.242 109.514 238.256 113.28 239.364 114.515C229.352 112.913 217.125 109.887 207.281 107.355C162.02 95.7104 118.442 78.2999 77.6179 55.5505C71.011 51.8628 64.4602 48.0757 57.9675 44.1905C56.867 43.5252 50.1604 39.0107 49.5593 39.3076C50.3168 40.028 52.3803 40.8832 52.6163 41.1408C54.4295 43.12 66.8591 49.0514 67.4298 50.7496C65.4751 52.555 62.2746 50.7777 59.7028 52.0536C58.98 51.9459 58.6862 51.6951 58.0694 51.3138C57.0039 52.1541 56.4555 52.5637 55.7865 53.7759C55.232 54.7806 55.5379 57.3585 54.4971 57.5944L54.2375 56.8884C53.5283 56.6431 52.6425 56.8021 51.8634 56.8627C51.1585 58.4698 51.5402 60.8843 50.4968 61.8485C48.3029 63.876 48.4663 63.2774 49.953 66.0994C49.538 66.4672 46.8098 68.3043 46.7812 68.3841C43.9258 76.3668 40.5603 84.4061 38.6203 92.661C38.1083 94.8398 39.8232 99.2417 39.3933 101.401C37.7152 109.831 33.6531 116.749 29.1365 123.912C24.9531 130.84 21.7527 138.574 16.9073 145.112C16.3816 145.822 13.8323 146.014 13.3256 147.373C12.7604 148.89 13.6047 150.237 12.4019 151.246L12.018 151.195C11.1866 149.892 11.7228 148.67 11.0026 148.455C10.3991 149.695 10.7693 154.544 10.3703 156.201C10.0706 157.446 9.10093 158.889 8.6308 160.163C8.15366 161.456 9.07271 162.417 8.52616 163.422L8.28647 163.344C8.20819 161.696 8.5408 157.326 7.84185 156.308C7.44639 157.742 7.88475 159.828 6.89086 161.1L6.6368 161.2C6.63654 158.67 6.66372 150.829 6.59017 147.754C6.58802 147.664 6.19173 147.291 6.0868 147.209Z"/><path fill="#38B573" transform="scale(4.49091 4.49091)" d="M6.1056 163.898C6.36174 163.54 6.32922 163.545 6.65095 163.252L6.70791 162.956L7.1983 162.464C7.48879 162.944 7.16426 166.17 7.01857 166.914C6.65638 168.763 7.41761 173.968 6.23271 175.113C6.10062 171.513 6.17139 167.561 6.1056 163.898Z"/><defs><linearGradient id="gradient_3" gradientUnits="userSpaceOnUse" x1="226.36073" y1="259.56067" x2="470.29254" y2="310.66418"><stop offset="0" stop-color="#29AC42"/><stop offset="1" stop-color="#009379"/></linearGradient></defs><path fill="url(#gradient_3)" transform="scale(4.49091 4.49091)" d="M262.093 172.684C265.955 171.5 276.525 170.351 280.618 170.002C313.158 167.241 345.798 174.001 374.564 189.458C405.274 205.9 430.114 231.481 445.647 262.661C449.832 271.002 451.663 277.124 455.11 285.172C457.43 285.625 458.49 286.222 460.594 286.783C460.74 292.978 460.713 299.175 460.513 305.369C461.255 312.335 460.588 320.422 460.759 327.529C461.315 350.639 459.719 373.864 451.457 395.681C450.786 397.452 450.144 399.269 449.472 401.055C447.652 400.959 444.276 401.43 442.305 401.581C437.775 401.89 433.242 402.153 428.706 402.369C418.104 402.794 406.486 402.127 395.909 401.477C392.445 400.902 387.739 400.572 384.149 400.126C377.454 399.274 370.793 398.172 364.179 396.822C329.693 389.83 296.82 376.444 267.26 357.356C261.404 353.634 253.496 348.465 248.009 344.177C246.227 343.306 238.763 337.596 236.944 336.231L205.595 312.38C200.329 308.4 194.632 304.164 189.126 300.495C188.683 300.2 188.053 300.09 187.518 300.062C184.184 296.872 181.221 295.231 177.258 292.945C174.721 289.384 166.868 286.736 164.975 283.885C173.218 282.291 182.264 280.622 189.103 275.38C192.834 272.645 193.754 268.967 194.254 264.597C195.778 251.269 184.675 243.369 172.549 242.121C172.553 235.591 171.574 231.298 168.371 225.562C169.39 224.769 173.592 220.271 174.734 219.126C178.428 215.4 182.294 211.85 186.32 208.487C204.21 193.64 224.971 182.643 247.304 176.183C251.292 175.013 258.011 173.191 262.093 172.684Z"/><path fill="#6BB85A" transform="scale(4.49091 4.49091)" d="M168.371 225.562C169.39 224.769 173.592 220.271 174.734 219.126C178.428 215.4 182.294 211.85 186.32 208.487C204.21 193.64 224.971 182.643 247.304 176.183C251.292 175.013 258.011 173.191 262.093 172.684C260.559 173.465 258.925 173.578 257.277 174.036C253.164 175.18 248.331 175.743 244.608 177.723C244.318 177.884 244.179 177.741 243.888 177.62L243.679 177.933L243.809 178.459C244.408 178.69 244.573 178.708 245.212 178.826C248.012 182.061 250.295 196.503 250.07 201.034C249.698 208.517 250.552 216.38 250.222 223.854C249.975 229.44 249.063 235.633 248.588 241.26C247.731 251.064 244.536 259.858 241.184 269.01C239.171 274.466 235.467 278.983 234.065 284.687C233.278 287.888 233.677 291.562 233.458 295.327C232.881 305.212 233.678 321.294 231.797 330.55C231.344 332.782 245.171 340.785 248.009 344.177C246.227 343.306 238.763 337.596 236.944 336.231L205.595 312.38C200.329 308.4 194.632 304.164 189.126 300.495C188.683 300.2 188.053 300.09 187.518 300.062C184.184 296.872 181.221 295.231 177.258 292.945C174.721 289.384 166.868 286.736 164.975 283.885C173.218 282.291 182.264 280.622 189.103 275.38C192.834 272.645 193.754 268.967 194.254 264.597C195.778 251.269 184.675 243.369 172.549 242.121C172.553 235.591 171.574 231.298 168.371 225.562Z"/><path fill="#38B573" transform="scale(4.49091 4.49091)" d="M455.11 285.172C457.43 285.625 458.49 286.222 460.594 286.783C460.74 292.978 460.713 299.175 460.513 305.369C458.781 298.176 457.067 292.252 455.11 285.172Z"/><path fill="#6BB85A" transform="scale(4.49091 4.49091)" d="M6.22208 272.273C6.74028 272.542 7.14858 272.773 7.47435 273.284C11.671 279.857 15.8096 285.609 21.1141 291.357C29.685 300.464 39.9152 307.85 51.2556 313.122C52.8679 313.868 58.1414 316.937 59.4492 315.706C64.2827 320.807 70.6571 324.156 77.7308 324.645C77.2998 337.722 83.7484 348.929 97.9423 349.355C110.028 349.718 115.568 336.628 118.703 326.786L118.747 327.189C119.15 330.967 119.095 335.956 119.268 339.884C119.543 346.513 120.19 353.122 121.208 359.679C128.659 407.608 151.945 452.217 189.787 482.964C193.495 485.977 208.145 496.987 212.185 498.48C207.367 497.957 197.47 498.159 192.381 498.145L153.856 498.066C114.692 497.357 77.373 481.292 49.9393 453.332C24.7219 428.044 9.33581 394.601 6.53926 358.998C6.12903 353.912 6.2249 348.935 6.22357 343.837L6.21177 324.426C6.20273 307.088 6.03425 289.588 6.22208 272.273Z"/><path fill="#FEFEFE" transform="scale(4.49091 4.49091)" d="M83.7026 235.895C85.4694 226.004 89.788 215.873 101.074 214.376C105.172 213.832 111.863 214.212 114.953 217.131C124.186 225.854 125.877 243.853 127.117 255.785C127.726 253.573 128.018 250.974 128.692 248.79C132.554 236.274 137.75 214.506 155.069 217.61C161.519 218.766 164.409 220.487 168.371 225.562C171.574 231.298 172.553 235.591 172.549 242.121C184.675 243.369 195.778 251.269 194.254 264.597C193.754 268.967 192.834 272.645 189.103 275.38C182.264 280.622 173.218 282.291 164.975 283.885C166.868 286.736 174.721 289.384 177.258 292.945C181.221 295.231 184.184 296.872 187.518 300.062C188.446 301.295 189.879 303.161 190.22 304.649C194.164 321.838 182.225 330.843 166.35 330.806C166.127 334.06 165.151 337.355 163.789 340.409C160.048 348.796 153.482 353.023 144.375 352.535C132.433 351.895 129.746 343.053 126.651 332.929C125.7 334.021 125.814 334.771 125.71 336.325C125.969 340.228 126.633 344.341 127.315 348.192C134.557 389.101 155.074 429.192 186.489 456.682C206.268 473.967 229.812 486.393 255.244 492.969C258.404 493.785 261.58 494.536 264.772 495.22C266.674 495.608 276.991 497.402 278.004 497.933C270.322 498.912 260.018 498.604 252.063 498.607L212.185 498.48C208.145 496.987 193.495 485.977 189.787 482.964C151.945 452.217 128.659 407.608 121.208 359.679C120.19 353.122 119.543 346.513 119.268 339.884C119.095 335.956 119.15 330.967 118.747 327.189L118.703 326.786C115.568 336.628 110.028 349.718 97.9423 349.355C83.7484 348.929 77.2998 337.722 77.7308 324.645C70.6571 324.156 64.2827 320.807 59.4492 315.706C57.5344 312.849 56.321 310.171 56.0424 306.76C55.6801 302.323 56.0212 296.591 59.1705 293.183C67.1106 284.592 86.0566 282.42 97.0636 281.603C85.8672 278.117 60.2938 273.234 59.2305 258.529C58.0658 242.424 69.2019 236.546 83.7026 235.895Z"/><path fill="#ADCC3F" transform="scale(4.49091 4.49091)" d="M153.038 285.459C156.549 284.811 161.349 284.347 164.975 283.885C166.868 286.736 174.721 289.384 177.258 292.945C168.197 289.406 162.475 287.474 153.038 285.459Z"/><path fill="#6BB85A" transform="scale(4.49091 4.49091)" d="M125.71 336.325C125.42 334.642 124.705 327.023 124.845 325.52C125.435 326.865 126.29 331.277 126.651 332.929C125.7 334.021 125.814 334.771 125.71 336.325Z"/><path fill="#6BB85A" transform="scale(4.49091 4.49091)" d="M395.909 401.477C406.486 402.127 418.104 402.794 428.706 402.369C433.242 402.153 437.775 401.89 442.305 401.581C444.276 401.43 447.652 400.959 449.472 401.055C434.878 438.749 403.862 469.954 366.944 485.811C366.036 486.2 362.359 487.774 361.55 487.933C360.981 487.963 360.462 488.056 359.899 488.139C358.602 485.735 359.599 485.863 356.928 485.346C355.191 483.916 358.425 480.942 358.684 479.521C359.584 474.601 361.053 471.578 363.389 467.194C365.509 463.215 368.999 461.42 367.994 456.792C367.864 456.196 371.032 452.378 371.652 451.702C375.12 447.487 376.82 441.915 380.246 437.576C380.545 437.195 380.626 434.024 380.929 433.383C384.953 430.214 388.169 427.043 391.52 423.14C392.128 422.986 392.148 423.018 392.654 422.667C393.867 420.147 392.26 419.795 391.946 418.052C391.932 417.974 402.832 406.8 403.868 405.941C404.648 405.293 406.1 405.215 406.606 404.389C406.122 403.737 402.919 403.397 401.94 403.25C399.722 402.918 397.894 402.626 395.909 401.477Z"/></svg>